{"title":"Bajrangi Bhaijaan (2015) pre-dvdrip","uid":12137551,"size":802084864,"categoryP":"video","categoryS":"movies","magnet":"?xt=urn:btih:6cb3e75b987c827d5acf86b2096a5f1ade676b01&amp;dn=Bajrangi+Bhaijaan+%282015%29+pre-dvdrip&amp;tr=udp%3A%2F%2Ftracker.openbittorrent.com%3A80&amp;tr=udp%3A%2F%2Fopen.demonii.com%3A1337&amp;tr=udp%3A%2F%2Ftracker.coppersurfer.tk%3A6969&amp;tr=udp%3A%2F%2Fexodus.desync.com%3A6969","seeders":0,"leechers":0,"uploader":null,"files":1,"time":1437244530,"description":" &lt;a href=&quot;https://upload.wikimedia.org/wikipedia/en/1/1c/Bajrangi_Bhaijaan_Audio_Poster.jpg&quot; rel=&quot;nofollow&quot; target=&quot;_NEW&quot;&gt;https://upload.wikimedia.org/wikipedia/en/1/1c/Bajrangi_Bhaijaan_Audio_Poster.jpg&lt;/a&gt;\n\n\nBajrangi Bhaijaan (2015) pre-dvdrip\n\nFormat : MPEG-4\nFormat profile : Base Media\nCodec ID : isom\nFile size : 764 MiB\nDuration : 2h 34mn\nOverall bit rate : 763 Kbps\nWriting application : Lavf56.30.100\n\nVideo\nID : 1\nFormat : AVC\nFormat/Info : Advanced Video Codec\nFormat profile : &lt;a class=&quot;__cf_email__&quot; href=&quot;/cdn-cgi/l/email-protection&quot; data-cfemail=&quot;145c7d737c5458273a25&quot;&gt;[email&amp;#160;protected]&lt;/a&gt;&lt;script data-cfhash='f9e31' type=&quot;text/javascript&quot;&gt;\n/* &lt;![CDATA[ */!function(){try{var t=&quot;currentScript&quot;in document?document.currentScript:function(){for(var t=document.getElementsByTagName(&quot;script&quot;),e=t.length;e--;)if(t[e].getAttribute(&quot;data-cfhash&quot;))return t[e]}();if(t&amp;&amp;t.previousSibling){var e,r,n,i,c=t.previousSibling,a=c.getAttribute(&quot;data-cfemail&quot;);if(a){for(e=&quot;&quot;,r=parseInt(a.substr(0,2),16),n=2;a.length-n;n+=2)i=parseInt(a.substr(n,2),16)^r,e+=String.fromCharCode(i);e=document.createTextNode(e),c.parentNode.replaceChild(e,c)}t.parentNode.removeChild(t);}}catch(u){}}()/* ]]&gt; */&lt;/script&gt;\nFormat settings, CABAC : Yes\nFormat settings, ReFrames : 4 frames\nCodec ID : avc1\nCodec ID/Info : Advanced Video Coding\nDuration : 2h 34mn\nBit rate : 581 Kbps\nWidth : 900 pixels\nHeight : 736 pixels\nDisplay aspect ratio : 4:3\nOriginal display aspect ratio : 4:3\nFrame rate mode : Constant\nFrame rate : 25.000 fps\nColor space : YUV\nChroma subsampling : 4:2:0\nBit depth : 8 bits\nScan type : Progressive\nBits/(Pixel*Frame) : 0.035\nStream size : 642 MiB (76%)\nWriting library : x264 core 142\n\n__\n\n\nAudio\nID : 2\nFormat : AAC\nFormat/Info : Advanced Audio Codec\nFormat profile : LC\nCodec ID : 40\nDuration : 2h 34mn\nBit rate mode : Constant\nBit rate : 176 Kbps\nChannel(s) : 2 channels\nChannel positions : Front: L R\nSampling rate : 44.1 KHz\nCompression mode : Lossy\nStream size : 194 MiB (23%)","torrent":{"xt":"urn:btih:6cb3e75b987c827d5acf86b2096a5f1ade676b01","amp;dn":"Bajrangi+Bhaijaan+%282015%29+pre-dvdrip","amp;tr":["udp%3A%2F%2Ftracker.openbittorrent.com%3A80","udp%3A%2F%2Fopen.demonii.com%3A1337","udp%3A%2F%2Ftracker.coppersurfer.tk%3A6969","udp%3A%2F%2Fexodus.desync.com%3A6969"],"infoHash":"6cb3e75b987c827d5acf86b2096a5f1ade676b01","infoHashBuffer":{"type":"Buffer","data":[108,179,231,91,152,124,130,125,90,207,134,178,9,106,95,26,222,103,107,1]},"announce":[],"urlList":[]}}